<svg width="460" height="602" viewBox="0 0 460 602" fill="none" xmlns="http://www.w3.org/2000/svg">
<path d="M228.5 324L243 339.5L234 351.5L79.5 353.5L51.5 321L24 291L25.8913 288.983C29.6243 285.001 33.6738 281.328 38 278C42.6592 275.338 47.5244 273.053 52.5489 271.169L53 271L60 269C67.2163 267.688 74.6472 268.22 81.6031 270.546L222 317.5L228.5 324Z" fill="#B5451F" stroke="#B5451F" stroke-width="0.3"/>
<path d="M143 89.5L138.5 82L137.712 80.6871C137.24 79.9 136.887 79.0474 136.664 78.1569C136.555 77.7196 136.477 77.2748 136.433 76.8262L136 72.5L136.5 51L161 37.5L186.5 38.5C188.15 42.4608 189 46.7092 189 51V57.5L188.5 65.5L186.5 79L185.329 83.0982C184.777 85.0299 184.077 86.9161 183.235 88.7401L181.825 91.7969C181.609 92.2643 181.344 92.7077 181.035 93.1195L180.671 93.6056C180.23 94.1938 179.658 94.6712 179 95C178.342 95.3288 177.617 95.5 176.882 95.5H172.14C170.316 95.5 168.999 97.246 169.5 99L158 97L143 89.5Z" fill="#E6B2B6" stroke="#E6B2B6" stroke-width="0.3"/>
<path d="M136.19 68.3225L135.5 72L131 64L129.423 60.1704C128.143 57.0616 127.109 53.8571 126.33 50.5865L126.039 49.3646C125.348 46.4606 124.917 43.5008 124.751 40.5203L124.621 38.1694C124.54 36.7261 124.59 35.2784 124.769 33.844L124.819 33.4507C124.939 32.485 125.134 31.53 125.402 30.5943L125.43 30.4952C125.809 29.1694 126.338 27.8914 127.008 26.686C127.995 24.9081 129.276 23.3098 130.797 21.9586L131.231 21.5725C132.407 20.5273 133.694 19.6145 135.069 18.8505L136.055 18.3027C137.017 17.7683 138.017 17.306 139.048 16.9197C140.677 16.3087 142.372 15.891 144.099 15.6751L145.5 15.5L150 15L153.264 14.3471C154.418 14.1163 155.545 13.7663 156.627 13.3027L157.057 13.1183C158.016 12.7076 158.922 12.1839 159.756 11.5583C160.251 11.1866 160.72 10.7801 161.158 10.342L161.5 10L161.879 9.62137C162.292 9.20813 162.663 8.75509 162.987 8.26884C163.328 7.75766 163.618 7.20578 163.846 6.63536C164.275 5.56342 164.5 4.40683 164.5 3.25232V1L168 2L171.938 3.3127C174.308 4.10283 176.608 5.09104 178.813 6.26686L179.354 6.55537C181.778 7.84813 184.057 9.39478 186.155 11.1693L187.276 12.1179C188.754 13.3687 190.086 14.7819 191.248 16.3309L192.284 17.7119C193.419 19.2254 194.278 20.9274 194.822 22.7395L194.901 23.0033C195.298 24.3273 195.5 25.7023 195.5 27.0846V28.3126C195.5 29.4259 195.274 30.5277 194.835 31.551C194.287 32.8294 193.424 33.9479 192.326 34.8018L191.369 35.5461C190.133 36.5074 188.733 37.236 187.237 37.6964L185.744 38.1556C183.923 38.716 182.035 39.0311 180.13 39.0926L170.838 39.3923C168.616 39.464 166.403 39.7058 164.217 40.1155L162.952 40.3528C160.658 40.783 158.417 41.4639 156.272 42.3835C153.768 43.4567 151.411 44.8467 149.261 46.5194L148 47.5L146.853 48.647C144.956 50.5444 143.25 52.6245 141.762 54.8571L141.532 55.2026C140.512 56.7319 139.613 58.3382 138.843 60.007C137.619 62.6588 136.728 65.4518 136.19 68.3225Z" fill="#555BA5" stroke="#555BA5" stroke-width="0.3"/>
<path d="M119.5 119.5L127.438 115.74C128.478 115.247 129.553 114.834 130.655 114.503C132.872 113.838 135.177 113.514 137.492 113.541L162.105 113.831C171.631 113.943 181.066 115.691 190 119L206 125.5L220.5 131L225.458 133.231C228.792 134.731 231.825 136.825 234.409 139.409C235.468 140.468 236.447 141.605 237.337 142.809L244.5 152.5L255 167.5L264 181.5L271 192.5L282.5 211L291.5 224.5L289.796 231.802C286.272 246.908 281.49 261.692 275.5 276L259 258L245 243L227.5 223.5L221.5 217.5V248V256.5L232 259.5V280H214L214.947 298.223C215.647 311.698 214.826 325.209 212.5 338.5L209.469 349.759C209.158 350.912 208.662 352.007 208 353L163 352.5L81 357.5L77 336.5L74.5 306.5L72 280L67 216V206.196C67 202.446 66.1633 198.743 64.551 195.357C62.8732 191.834 62.0363 187.969 62.1059 184.068L62.5 162L64 152.5L65.378 146.299C65.7887 144.451 66.5587 142.702 67.6443 141.151C68.8663 139.405 70.4595 137.952 72.3096 136.895L76.7238 134.372C78.9023 133.127 81.2014 132.106 83.5858 131.325L109 123L119.5 119.5Z" fill="#DFE5F5" stroke="#DFE5F5" stroke-width="0.3"/>
<path d="M221 210.5V217.5H222L253.5 252L276.5 277L283 253.5L262.5 241.5L241 225.5L231.5 217.5L221 210.5Z" fill="#CFD5EB" stroke="#CFD5EB" stroke-width="0.3"/>
<path d="M275.257 277.5H241V280.5H398V277.5H277L301.5 188.5H299.5L278.5 266L275.257 277.5Z" fill="#35327F" stroke="#35327F" stroke-width="0.3"/>
<path d="M232 277.5V261H232.5L242.5 257.5L245 257L248.5 256.5L254.5 257L260.5 259L266 262.5L269 265.5L271.353 268.637C271.779 269.206 272.08 269.859 272.234 270.553L272.683 272.572C272.885 273.484 272.707 274.44 272.188 275.217C272.063 275.405 271.918 275.582 271.758 275.742C271.267 276.233 270.636 276.573 269.955 276.709L269.288 276.842C268.765 276.947 268.253 277.123 267.776 277.362C266.943 277.779 266.015 278 265.084 278H259.325C259.11 278 258.896 278.035 258.692 278.103L254.649 279.45C254.55 279.483 254.448 279.509 254.345 279.526L251.5 280L248.663 280.473C248.555 280.491 248.445 280.5 248.334 280.5H243.385C243.131 280.5 242.879 280.451 242.642 280.357L240.762 279.605C240.588 279.535 240.405 279.491 240.219 279.472L235.5 279L233 278L232 277.5Z" fill="#E6B2B6" stroke="#E6B2B6" stroke-width="0.3"/>
<path d="M277 277.5L301.5 188.5H423.5L398 277.5H346H277Z" fill="#555CA0" stroke="#555CA0" stroke-width="0.3"/>
<ellipse cx="355.227" cy="233.492" rx="6.11235" ry="8.00593" transform="rotate(40.9821 355.227 233.492)" fill="#DBE1F1"/>
<path d="M142.5 233L130.5 187.5L143 206L148.538 212.46C154.826 219.797 161.922 226.399 169.693 232.142L177.04 237.573C179.672 239.518 182.509 241.171 185.5 242.5L193 245C197.324 245.998 201.732 246.586 206.166 246.756L212.5 247H215.459C217.483 247 219.503 247.167 221.5 247.5V256.355L173.5 243L142.5 233Z" fill="#D0D6EC" stroke="#D0D6EC" stroke-width="0.3"/>
<path d="M212.5 276L115 269C115.328 270.967 116.154 272.818 117.4 274.375L118.006 275.133C118.996 276.37 120.171 277.447 121.49 278.326L123.936 279.957C125.973 281.315 128.149 282.451 130.428 283.347L133.638 284.608C138.529 286.529 143.63 287.864 148.835 288.585L173.5 292H212.5V276Z" fill="#D0D6EC" stroke="#D0D6EC" stroke-width="0.3"/>
<path d="M162 162L163.288 149.551C163.428 148.194 163.331 146.823 163 145.5L169 144.5L169.5 146.5L170.5 151.5L174 172.5L177 198L179 223L180.5 239L183.5 284L184 295L184.5 306.5V319L184.49 319.078C184.164 321.686 183.581 324.256 182.75 326.75L182.709 326.873C181.905 329.285 180.865 331.612 179.603 333.82C178.205 336.266 176.544 338.552 174.649 340.636L172.5 343L163.5 334L161.122 330.909C159.394 328.663 158.17 326.071 157.533 323.309C157.179 321.775 157.01 320.204 157.029 318.63L158 238.5L158.5 223.5V211L159 199L160 183L161 172.5L162 162Z" fill="#D6652D" stroke="#D6652D" stroke-width="0.3"/>
<path d="M114.5 268.5L142.5 233.5L221 256.5L216 280L196.5 279L164 277.5L120.5 274L116.5 271.5L114.5 268.5Z" fill="#DFE5F5" stroke="#DFE5F5" stroke-width="0.3"/>
<path d="M174 95.5L176 114L173.496 121.511C172.834 123.498 171.956 125.406 170.879 127.202C169.962 128.731 168.904 130.171 167.719 131.503L165.5 134L165.11 133.856C159.06 131.627 153.313 128.652 148 125L141.5 120L134.5 113L136.5 106L138 98.5L138.5 91.5V82.5L140.051 84.2228C142.005 86.3944 144.285 88.2494 146.808 89.7215C148.267 90.5721 149.798 91.2902 151.384 91.8671L151.983 92.0848C153.659 92.6941 155.378 93.1756 157.126 93.5252L159.611 94.0222C162.866 94.6732 166.164 95.0876 169.479 95.262L174 95.5Z" fill="#D98789" stroke="#D98789" stroke-width="0.3"/>
<path d="M94 354L86.6067 355.008C84.2053 355.336 81.8304 355.834 79.5 356.5L76.5 334L75 310.5L70.5 264.5L68.5 232.5L67 216.5V208.5L66.5 200.5L72.5 208.5L89.5 234L103.635 254.372C105.514 257.079 106.672 260.221 107 263.5L108 275L109.5 286L110.286 288.83C111.417 292.901 113.361 296.701 116 300L122.5 306.5L133 316L142 325L153.5 337.5L157 341.5C158.994 344.159 160.694 347.026 162.069 350.052L162.5 351L152 350.5L113.5 352L94 354Z" fill="#D0D6EC" stroke="#D0D6EC" stroke-width="0.3"/>
<path d="M124 130L121 126L120 124L119 121V120.25V119.5L120 119L121 123L122.5 126L127 131.5L132 136L138 140.5L147 147L157.5 154L156.5 155.5L145.5 148.5L135.5 141L129 135.5L124 130Z" fill="#D0D6EC" stroke="#D0D6EC" stroke-width="0.3"/>
<path d="M161.5 146L165 135.5L171.5 143.5L169.5 146L167.896 145.358C167.31 145.124 166.671 145.055 166.048 145.159L165.56 145.24C164.6 145.4 163.808 146.077 163.5 147L161.5 146Z" fill="#C5582D" stroke="#C5582D" stroke-width="0.3"/>
<path d="M177.5 149L165.5 134.5V135.5L171.5 143.5L177.5 151L182.5 144.5L186.5 138.5L191 129L191.5 126.5L192 124V122L191.5 124.5L190.5 128.5L185 139L182 143.5L181 145L179 147.5L177.5 149Z" fill="#D0D6EC" stroke="#D0D6EC" stroke-width="0.3"/>
<path d="M386 566L332.5 458.5L345 447.5L406 566H386Z" fill="#2C295E" stroke="#2C295E" stroke-width="0.3"/>
<path d="M402.5 601L397.5 581.5H432L432.754 581.931C434.58 582.974 436.505 583.835 438.5 584.5L441.5 585.75L443 586.5L446.5 588.5L450 591L452.5 593C454.496 594.996 456.314 597.163 457.933 599.476L459 601H402.5Z" fill="#221E50" stroke="#221E50" stroke-width="0.3"/>
<path d="M434.5 583.5H386L362 559.5L350.5 546L340 532L331 518.5L326 507L344 466.5L367.5 517L380 541.5L392.5 565L367.5 515L344 462.5L358.5 399L434.5 583.5Z" fill="#343383" stroke="#343383" stroke-width="0.3"/>
<path d="M279 552.5L285.5 537L308 538.5C308.987 545.407 311.549 551.995 315.489 557.754L316 558.5L317.883 562.031C319.292 564.672 320.476 567.428 321.423 570.268L322.367 573.101C323.12 575.359 323.592 577.7 323.775 580.072C323.925 582.019 323.878 583.976 323.636 585.914L323.5 587L279 552.5Z" fill="#221E50" stroke="#221E50" stroke-width="0.3"/>
<path d="M291 313L205.5 353.5L256.5 443.5L277 444L276 454L275 472.5V489.5V511L276.5 539L322 553L335.625 499.125L349.25 445.25L376.5 337.5L379.073 326.349C379.356 325.124 379.447 323.862 379.342 322.609C379.12 319.945 378.025 317.427 376.226 315.449L374 313H291Z" fill="#2C295E" stroke="#2C295E" stroke-width="0.3"/>
<path d="M145 442L137.5 430L266 443.5L264 450L263.661 450.805C261.224 456.592 258.328 462.175 255 467.5L249.5 475L242 483L236.5 487.5L225.5 494.5C216.512 498.827 207.217 502.484 197.69 505.441L197.5 505.5L184.5 508L175.5 509.5C174.835 505.84 173.853 502.245 172.567 498.755L167.5 485L162 472.5L155 459L145 442Z" fill="#C4592D" stroke="#C4592D" stroke-width="0.3"/>
<path d="M87 355L77.5 357L132 429L145 434.5L157.5 438L168.5 440.5L184 442L277 443.968L284.5 409L303 358.5L208.5 351.5H193.5L161 350.5L125.5 351.5L104.5 353L87 355Z" fill="#343383" stroke="#343383" stroke-width="0.3"/>
<path d="M285.5 411.5L138.5 383L286.5 409L285.5 411.5Z" fill="#2C295E" stroke="#2C295E" stroke-width="0.5"/>
<path d="M22.5 293L24 291C24.9987 292.332 26.0907 293.591 27.2678 294.768L31 298.5L36.5 304.5L43.5 312.5L49.5 319L62 333L73 346L85.5 360.5L94 371L101.5 381L110.5 392.5L116 400L126 413.5L134.5 426L140 434L145.5 443.5L151 452L155.5 460L161 470.5L164.5 477.5L167.5 485L170.5 492L172 496.5L173.5 502L174.138 504.127C174.71 506.032 175 508.011 175 510H172.5L171.5 505L170.5 501L168.5 495L166 488.5L163.5 483L160 475L155.5 466L150 455.5L145 447.5L138 436L132.5 427.5L125 416.5L117.5 406L109 394.5L99 381L91 371L80 357.5L70 345.5L61.5 336L54.5 328L48.5 321L41 312.5L32 303L22.5 293Z" fill="#D58B27" stroke="#D58B27" stroke-width="0.3"/>
<rect x="136" y="508.5" width="21" height="79" fill="#D2872C"/>
<path d="M26.5 296.5L22.5 292.5L17 300.5L12.5 309L9 318L6.5 327L4.5 336L2.5 346.5L1.5 355L1 364V378.5L1.5 387L2.5 395L4 403L5.5 411L8 420L12 431L16.5 441L22.5 451.5C28.4902 459.82 35.2508 467.751 42.5 475L53.5 483.5L65.5 491L75.5 495.5L84.5 499L98.5 503.5L114.5 507L125.5 509L136 510.5L144 511.5H151.5L164 511L173 510C173 509.338 172.893 508.68 172.684 508.051L172 506L171 503L169 496.5L166.5 489.5L164 483.5L161 477.5L157.5 470L152.5 460.5L148 452L145.25 447.625L142.5 443.25L139.75 438.875L137 434.5L132.5 427.5L130 423.5L126 418L123 413.5L119.5 408.5L116 403.5L113 399.5L110 395.5L106.5 391L102 385L98.5 380.5L94.5 375.5L91 371L87.5 366.5L83.5 361.5L79 356L76.5 353.5L72.5 348.5L68.5 344L64.5 339L60.5 334.5L55.5 328.5L52 324.5L48 320L44 315.5L40.5 312L37 308L34 305L30 300.5L26.5 296.5Z" fill="#D3642C" stroke="#D3642C" stroke-width="0.3"/>
<rect x="53" y="586.5" width="184" height="15" rx="7.5" fill="#D2872C"/>
<rect x="192" y="281" width="213" height="38" rx="6" fill="#D2872C"/>
</svg>
