<svg width="449" height="545" viewBox="0 0 449 545" fill="none" xmlns="http://www.w3.org/2000/svg">
<rect x="30" y="223" width="367" height="38" rx="6" fill="#D2872C"/>
<path d="M243 87.6852V79.5H258L254.897 104.537L244.5 106L244.034 103.093L243.517 97.3148L243 87.6852Z" fill="#D98789" stroke="#D98789" stroke-width="0.5"/>
<path d="M229 42.5L231 36.5L247.5 40L259.5 82.5L254.5 82H251L247.717 81.6137C244.246 81.2054 240.817 80.495 237.469 79.4906L233.658 78.3473C232.887 78.1162 232.138 77.8191 231.419 77.4594L229.114 76.307C227.434 75.4669 226.133 74.0225 225.474 72.2636C225.161 71.428 225 70.5429 225 69.6505V63.0663C225 60.3613 225.251 57.6621 225.749 55.0033L226.5 51L229 42.5Z" fill="#E6B2B6" stroke="#E6B2B6" stroke-width="0.5"/>
<path d="M108.5 150H5L38.5 220L119.5 219.5L142.5 213.5L108.5 150Z" fill="#D0D6EC" stroke="#D0D6EC" stroke-width="0.5"/>
<path d="M110 148H0.5L36.5 222.5H144.5V219H38.5L5.5 150.5H108L138 206H141.5L110 148Z" fill="#545BA5" stroke="#545BA5" stroke-width="0.5"/>
<path d="M82 218.5L80 207H78.683C78.2338 207 77.7908 206.895 77.3891 206.695C77.1312 206.566 76.8554 206.476 76.5709 206.428L75.065 206.178C74.3562 206.059 73.6389 206 72.9203 206H69.3188C68.4411 206 67.5649 206.073 66.6991 206.217C65.5697 206.405 64.4638 206.714 63.4007 207.14L62.5 207.5L60.5 208.5L58.8114 209.626C57.9393 210.207 57.1267 210.873 56.3855 211.614L56.2488 211.751C55.4194 212.581 54.6949 213.509 54.0914 214.514L53.907 214.822C53.6361 215.273 53.4017 215.746 53.2062 216.235L52.8023 217.244C52.6026 217.743 52.5 218.276 52.5 218.814V218.992C52.5 219.329 52.5542 219.663 52.6605 219.982L52.6972 220.091C52.8934 220.68 53.2804 221.187 53.7968 221.531C54.2553 221.837 54.7941 222 55.3451 222H63.2094C63.7331 222 64.2532 222.084 64.75 222.25C65.2468 222.416 65.7669 222.5 66.2906 222.5H71.6248C72.8689 222.5 74.1068 222.327 75.303 221.985C76.4295 221.663 77.5088 221.195 78.5134 220.592L82 218.5Z" fill="#E0ACB0" stroke="#E0ACB0" stroke-width="0.5"/>
<path d="M226.356 109.27L241 106.5C251.984 104.836 263.079 104 274.188 104H315.5L326.5 144L329 154.5L332 166.5L334.5 179L337 190L339 200.5L342 214.5L344.5 227L346.5 237L254.5 281.5L254 276L253 269.5L250.5 260L246.5 247.5L243 238.5L238.5 229.5L234 222L233.803 221.721C229.94 216.248 226.496 210.491 223.5 204.5L220.5 197L218 188.5L217.5 186.5L189.5 223L141 222L111 221L82.5 218.5L80 207L170 198L181 172.5L196.5 136.5L205.611 119.579C206.526 117.88 207.8 116.4 209.343 115.242C210.441 114.419 211.66 113.771 212.956 113.32L218.793 111.289C221.261 110.431 223.789 109.756 226.356 109.27Z" fill="#EED070" stroke="#EED070" stroke-width="0.5"/>
<path d="M219.345 184.048L217.5 187L219 192.5L221.5 200L225 208L229 215L234 222.5L240.5 233.5L244.5 242.5L248 251.5L251.5 264.5L254 276L254.5 281L285.5 263L277 249L268 235L267.465 234.159C263.162 227.397 258.325 220.99 253 215L250.493 212.851C249.834 212.286 249.107 211.804 248.33 211.415C247.121 210.811 246.039 209.981 245.141 208.971L242.5 206C239.173 201.342 236.258 196.403 233.788 191.24L232 187.5L228.224 181.626C227.753 180.894 227.066 180.326 226.257 180.003L226.031 179.912C225.361 179.644 224.623 179.594 223.923 179.769C223.319 179.92 222.768 180.232 222.327 180.673L220.874 182.126C220.293 182.707 219.78 183.352 219.345 184.048Z" fill="#EAC165" stroke="#EAC165" stroke-width="0.5"/>
<path d="M230 31.1967V30.6545C230 28.5578 230.229 26.4674 230.684 24.4206L231 23L231.911 19.9648C232.302 18.6595 232.847 17.4052 233.534 16.2281C235.146 13.4639 237.495 11.2025 240.319 9.6965L243.5 8L251.5 5L258 3L266.5 1.5L275 1L278.348 1.22322C281.105 1.40699 283.827 1.94217 286.447 2.81578L287.005 3.00156C288.995 3.66498 290.902 4.55524 292.689 5.65476L293.321 6.04365C295.426 7.33927 297.307 8.9685 298.89 10.8676C300.616 12.9395 301.962 15.301 302.864 17.8427L307 29.5L313.5 52.5L318 72L321.5 90.5L323 102.5L325 115.5L326.5 128L327.5 143L322.5 145.5L320 135.5L318 130.5L320 146.5L285 156.5L281.5 151L282.5 156.5L267 160L265.5 155.5L263.5 146.5L262 137.5L261 130.5C260.668 131.828 260.5 133.192 260.5 134.562V138L261 144L262.5 153L264 160L254.5 162C253.169 157.341 252.21 152.583 251.633 147.772L251 142.5V118.5L252 109L252.5 99.5L254 87V86.2202C254 82.7586 253.495 79.3156 252.5 76C250.503 71.3407 248.14 66.8469 245.433 62.561L243.5 59.5L236.276 48.6641C235.094 46.8906 234.047 45.0301 233.146 43.0986L232.182 41.0334C231.397 39.3505 230.816 37.5796 230.452 35.7586C230.151 34.2565 230 32.7285 230 31.1967Z" fill="#D6652D" stroke="#D6652D" stroke-width="0.5"/>
<path d="M160 526.5L158 508.5H185L180 526.5H160Z" fill="#E6B2B6" stroke="#E6B2B6" stroke-width="0.5"/>
<path d="M125.138 543.203L124.5 544L176.5 543.5L182.5 526C179.175 525.335 175.792 525 172.401 525H167.5L165.332 525.094C159.131 525.364 152.981 526.339 147 528L143.048 529.664C139.365 531.215 135.903 533.242 132.749 535.696C129.926 537.891 127.371 540.411 125.138 543.203Z" fill="#D45C2A" stroke="#D45C2A" stroke-width="0.5"/>
<path d="M154 511L148 406.5L171 389L186.5 400L208.5 423.5L207.5 431L206.5 441L204 453L196.5 479.5L186.5 511H154Z" fill="#343383" stroke="#343383" stroke-width="0.5"/>
<path d="M48 527.5L54 512.5L84.5 513.5L72 526.5L48 527.5Z" fill="#E6B2B6" stroke="#E6B2B6" stroke-width="0.5"/>
<path d="M20 540L16.5 544L68.5 544.5L74 526L71 525.5L62.8721 524.875C59.6304 524.625 56.3729 524.663 53.1378 524.986C49.72 525.328 46.3416 525.988 43.0464 526.957L39.5 528L34.7943 529.661C32.2746 530.55 29.8754 531.75 27.6521 533.232C25.8883 534.408 24.2451 535.755 22.7462 537.254L20 540Z" fill="#D45C2A" stroke="#D45C2A" stroke-width="0.5"/>
<path d="M205 305L227.5 297.5L175 396L165.427 399.916C164.481 400.303 163.595 400.824 162.796 401.463C161.937 402.15 161.189 402.966 160.579 403.881L158.5 407L148.5 425.5L137.5 446L129 462L120 476L111 489.5L96.5 507.5L89.5 515.5L49 515L62.5 476L74.5 442L85 413.5L102 371.5L109.538 354.748C110.509 352.591 111.748 350.566 113.225 348.719C114.405 347.243 115.731 345.891 117.183 344.681L118.206 343.828C120.065 342.279 122.057 340.896 124.158 339.696L131.5 335.5L149.5 326.5L175.5 316L205 305Z" fill="#555BA5" stroke="#555BA5" stroke-width="0.5"/>
<path d="M149 358.5L150.746 357.706C153.244 356.571 155.839 355.665 158.5 355V353.5C155.849 353.831 153.263 354.562 150.83 355.668L149 356.5L143.714 358.262C143.239 358.42 142.751 358.536 142.255 358.606L140.124 358.911C139.719 358.969 139.344 359.156 139.054 359.446C138.699 359.801 138.5 360.282 138.5 360.784V362.73C138.5 363.569 138.34 364.4 138.029 365.179L134.5 374L128 389.5C124.5 397.5 117.5 413.6 117.5 414C117.5 414.4 112.167 425.833 109.5 431.5L105 442L95.5 461.5L84.5 483.5L74 502.5L74.5 503.5L82 490L91 473L102 451L111 432L116.5 419.5L123.5 404.5L130.5 388L136.5 374L139.612 365.997C139.87 365.335 140.045 364.644 140.133 363.939L140.455 361.363C140.484 361.128 140.591 360.909 140.759 360.741C140.916 360.584 141.118 360.48 141.337 360.444L144 360L149 358.5Z" fill="#343585" stroke="#343585" stroke-width="0.5"/>
<path d="M182 330L179.043 332.549C171.357 339.175 164.158 346.343 157.5 354L156.368 355.32C155.13 356.764 154.127 358.394 153.396 360.15C152.474 362.361 152 364.733 152 367.129V367.827C152 369.271 152.158 370.711 152.471 372.121C152.822 373.701 153.366 375.232 154.09 376.68L154.299 377.097C155.097 378.694 156.074 380.195 157.211 381.571L165 391L175.5 401.5L185.5 410L199.5 420L209.5 425.5L221.5 431L234.5 436L248.5 439.5L263 442L277 443H291L303 442.5L315 441L326.5 439.5L338.5 437L348.5 434.5L356.5 432L367.5 428L377.5 423.5L384 420L391.5 415L399.5 409L406 403.5L412 397.5L418.5 390L424 382.5L429.5 373L435 362.5L439 352.5L443 338L446 322.5L447 311.5L447.5 302.5V284L446.5 275L445.5 267.5L444.5 260.5L442.5 251L441 244L440.102 241.08C439.368 238.697 438.44 236.379 437.325 234.15L437.147 233.793C436.051 231.602 434.761 229.514 433.291 227.555L432.019 225.859C430.35 223.633 428.348 221.677 426.083 220.059L425.372 219.552C423.47 218.193 421.361 217.149 419.126 216.462C417.054 215.824 414.898 215.5 412.729 215.5H409.283C406.434 215.5 403.592 215.773 400.795 216.314L389.5 218.5L367 225L340.5 235L317 245.5L292.5 258L267 272L246 284.5L221 300.5L202.5 313.5L182 330Z" fill="#D6652D" stroke="#D6652D" stroke-width="0.5"/>
<rect x="190" y="527.5" width="200" height="16" rx="8" fill="#D2872C"/>
<rect x="277" y="440.5" width="23" height="89" fill="#D2872C"/>
<path d="M340.5 247L337 236.5L361 227L378 221.5L392 218L400.87 216.152C402.954 215.718 405.066 215.433 407.19 215.301L409.323 215.167C411.103 215.056 412.889 215.137 414.651 215.408C417.201 215.8 419.675 216.588 421.983 217.742L422.421 217.96C424.466 218.983 426.378 220.252 428.114 221.74L428.697 222.24C431.219 224.402 433.412 226.919 435.209 229.713L435.367 229.96C436.454 231.65 437.398 233.428 438.19 235.276L438.53 236.07C439.508 238.353 440.303 240.71 440.905 243.12L443 251.5L445.5 265L447.5 280L448 306L446 323.5L443 338.5L440.5 348L436.5 358.5L432 369L426.5 378.5C422.506 384.823 418.01 390.814 413.055 396.416L409 401L398 410.5L388.5 417L376.5 424L363.5 429.5L350.5 434L336 437.5L323 440L308.5 441.5L298.5 442.5L281 443L271 442.5L257 441L243.5 438L238.5 436.5L247.5 434.5L262 430L274 424.5L283 419.5L294 412.5L297.325 409.808C302.101 405.942 306.576 401.717 310.71 397.17C316.553 390.742 321.686 383.703 326.02 376.175L329 371L335.5 357.5L341 341.5L343.5 329.5L345.5 316L346.5 301.5L346 283.5L345.5 274.5L344 265.5L342.5 256L340.5 247Z" fill="#C5582D" stroke="#C5582D" stroke-width="0.5"/>
</svg>
