<svg width="1787" height="1087" viewBox="0 0 1787 1087" fill="none" xmlns="http://www.w3.org/2000/svg">
<rect width="1787" height="1087" fill="white"/>
<rect x="76" y="79" width="1633" height="922" fill="#F2F5FC"/>
<rect x="876.5" y="120.5" width="746" height="450" stroke="#DFE5F5" stroke-width="15"/>
<rect x="894" y="140" width="712" height="408" fill="#EBEFF8"/>
<rect x="919" y="171" width="202" height="11" rx="5.5" fill="#D0D6EC"/>
<rect x="919" y="191" width="105" height="11" rx="5.5" fill="#D0D6EC"/>
<rect x="1126" y="171" width="105" height="11" rx="5.5" fill="#D0D6EC"/>
<rect x="1030" y="191" width="201" height="11" rx="5.5" fill="#D0D6EC"/>
<rect x="919" y="211" width="201" height="11" rx="5.5" fill="#D0D6EC"/>
<rect x="1224" y="496" width="105" height="11" rx="5.5" fill="#D0D6EC"/>
<rect x="1224" y="516" width="201" height="11" rx="5.5" fill="#D0D6EC"/>
<rect x="1334" y="496" width="201" height="11" rx="5.5" fill="#D0D6EC"/>
<rect x="1229" y="299" width="35" height="179" fill="#D0D6EC"/>
<rect x="1289" y="322" width="36" height="156" fill="#D0D6EC"/>
<rect x="1350" y="244" width="36" height="234" fill="#D0D6EC"/>
<rect x="1409" y="174" width="36" height="304" fill="#D0D6EC"/>
<circle cx="1132.5" cy="337.5" r="55.5" stroke="#D0D6EC" stroke-width="4"/>
<path d="M1181.1 353.96C1185.23 342.236 1184.94 329.406 1180.28 317.881C1175.62 306.356 1166.91 296.93 1155.79 291.375C1144.67 285.82 1131.9 284.518 1119.89 287.715C1107.87 290.911 1097.44 298.385 1090.55 308.733C1083.66 319.08 1080.79 331.588 1082.47 343.905C1084.15 356.222 1090.28 367.5 1099.69 375.62C1109.1 383.739 1121.16 388.14 1133.59 387.997C1146.02 387.853 1157.97 383.173 1167.19 374.838L1133 337L1181.1 353.96Z" fill="#D0D6EC"/>
<circle cx="1132.5" cy="471.5" r="55.5" stroke="#D0D6EC" stroke-width="4"/>
<path d="M1181.1 487.96C1185.23 476.236 1184.94 463.406 1180.28 451.881C1175.62 440.356 1166.91 430.93 1155.79 425.375C1144.67 419.82 1131.9 418.518 1119.89 421.715C1107.87 424.911 1097.44 432.385 1090.55 442.733C1083.66 453.08 1080.79 465.588 1082.47 477.905C1084.15 490.222 1090.28 501.5 1099.69 509.62C1109.1 517.739 1121.16 522.14 1133.59 521.997C1146.02 521.853 1157.97 517.173 1167.19 508.838L1133 471L1181.1 487.96Z" fill="#D0D6EC"/>
<circle cx="992.5" cy="337.5" r="55.5" stroke="#D0D6EC" stroke-width="4"/>
<path d="M1041.1 353.96C1045.23 342.236 1044.94 329.406 1040.28 317.881C1035.62 306.356 1026.91 296.93 1015.79 291.375C1004.67 285.82 991.901 284.518 979.887 287.715C967.873 290.911 957.441 298.385 950.551 308.733C943.66 319.08 940.786 331.588 942.47 343.905C944.153 356.222 950.277 367.5 959.69 375.62C969.104 383.739 981.159 388.14 993.59 387.997C1006.02 387.853 1017.97 383.173 1027.19 374.838L993 337L1041.1 353.96Z" fill="#D0D6EC"/>
<circle cx="992.5" cy="471.5" r="55.5" stroke="#D0D6EC" stroke-width="4"/>
<path d="M1041.1 487.96C1045.23 476.236 1044.94 463.406 1040.28 451.881C1035.62 440.356 1026.91 430.93 1015.79 425.375C1004.67 419.82 991.901 418.518 979.887 421.715C967.873 424.911 957.441 432.385 950.551 442.733C943.66 453.08 940.786 465.588 942.47 477.905C944.153 490.222 950.277 501.5 959.69 509.62C969.104 517.739 981.159 522.14 993.59 521.997C1006.02 521.853 1017.97 517.173 1027.19 508.838L993 471L1041.1 487.96Z" fill="#D0D6EC"/>
<circle cx="1520.5" cy="318.5" r="41.5" stroke="#D0D6EC" stroke-width="2"/>
<path d="M1556.71 331.575C1559.91 322.706 1559.75 312.97 1556.25 304.213C1552.75 295.457 1546.16 288.289 1537.73 284.07C1529.29 279.85 1519.61 278.872 1510.5 281.321C1501.39 283.771 1493.5 289.477 1488.33 297.357C1483.15 305.238 1481.04 314.745 1482.41 324.075C1483.77 333.405 1488.51 341.91 1495.73 347.976C1502.95 354.042 1512.15 357.248 1521.57 356.985C1531 356.722 1540 353.009 1546.87 346.55L1520.5 318.5L1556.71 331.575Z" fill="#D0D6EC"/>
<circle cx="1520.5" cy="424.5" r="41.5" stroke="#D0D6EC" stroke-width="2"/>
<path d="M1556.71 437.575C1559.91 428.706 1559.75 418.97 1556.25 410.213C1552.75 401.457 1546.16 394.289 1537.73 390.07C1529.29 385.85 1519.61 384.872 1510.5 387.321C1501.39 389.771 1493.5 395.477 1488.33 403.357C1483.15 411.238 1481.04 420.745 1482.41 430.075C1483.77 439.405 1488.51 447.91 1495.73 453.976C1502.95 460.042 1512.15 463.248 1521.57 462.985C1531 462.722 1540 459.009 1546.87 452.55L1520.5 424.5L1556.71 437.575Z" fill="#D0D6EC"/>
<circle cx="1520.5" cy="213.5" r="41.5" stroke="#D0D6EC" stroke-width="2"/>
<path d="M1556.71 226.575C1559.91 217.706 1559.75 207.97 1556.25 199.213C1552.75 190.457 1546.16 183.289 1537.73 179.07C1529.29 174.85 1519.61 173.872 1510.5 176.321C1501.39 178.771 1493.5 184.477 1488.33 192.357C1483.15 200.238 1481.04 209.745 1482.41 219.075C1483.77 228.405 1488.51 236.91 1495.73 242.976C1502.95 249.042 1512.15 252.248 1521.57 251.985C1531 251.722 1540 248.009 1546.87 241.55L1520.5 213.5L1556.71 226.575Z" fill="#D0D6EC"/>
<path d="M363.5 721.5L378 737L369 749L214.5 751L186.5 718.5L159 688.5L160.891 686.483C164.624 682.501 168.674 678.828 173 675.5C177.659 672.838 182.524 670.553 187.549 668.669L188 668.5L195 666.5C202.216 665.188 209.647 665.72 216.603 668.046L357 715L363.5 721.5Z" fill="#B5451F" stroke="#B5451F" stroke-width="0.3"/>
<path d="M278 487L273.5 479.5L272.712 478.187C272.24 477.4 271.887 476.547 271.664 475.657C271.555 475.22 271.477 474.775 271.433 474.326L271 470L271.5 448.5L296 435L321.5 436C323.15 439.961 324 444.209 324 448.5V455L323.5 463L321.5 476.5L320.329 480.598C319.777 482.53 319.077 484.416 318.235 486.24L316.825 489.297C316.609 489.764 316.344 490.208 316.035 490.62L315.671 491.106C315.23 491.694 314.658 492.171 314 492.5C313.342 492.829 312.617 493 311.882 493H307.14C305.316 493 303.999 494.746 304.5 496.5L293 494.5L278 487Z" fill="#E6B2B6" stroke="#E6B2B6" stroke-width="0.3"/>
<path d="M271.19 465.822L270.5 469.5L266 461.5L264.423 457.67C263.143 454.562 262.109 451.357 261.33 448.087L261.039 446.865C260.348 443.961 259.917 441.001 259.751 438.02L259.621 435.669C259.54 434.226 259.59 432.778 259.769 431.344L259.819 430.951C259.939 429.985 260.134 429.03 260.402 428.094L260.43 427.995C260.809 426.669 261.338 425.391 262.008 424.186C262.995 422.408 264.276 420.81 265.797 419.459L266.231 419.072C267.407 418.027 268.694 417.115 270.069 416.351L271.055 415.803C272.017 415.268 273.017 414.806 274.048 414.42C275.677 413.809 277.372 413.391 279.099 413.175L280.5 413L285 412.5L288.264 411.847C289.418 411.616 290.545 411.266 291.627 410.803L292.057 410.618C293.016 410.208 293.922 409.684 294.756 409.058C295.251 408.687 295.72 408.28 296.158 407.842L296.5 407.5L296.879 407.121C297.292 406.708 297.663 406.255 297.987 405.769C298.328 405.258 298.618 404.706 298.846 404.135C299.275 403.063 299.5 401.907 299.5 400.752V398.5L303 399.5L306.938 400.813C309.308 401.603 311.608 402.591 313.813 403.767L314.354 404.055C316.778 405.348 319.057 406.895 321.155 408.669L322.276 409.618C323.754 410.869 325.086 412.282 326.248 413.831L327.284 415.212C328.419 416.725 329.278 418.427 329.822 420.239L329.901 420.503C330.298 421.827 330.5 423.202 330.5 424.585V425.813C330.5 426.926 330.274 428.028 329.835 429.051C329.287 430.329 328.424 431.448 327.326 432.302L326.369 433.046C325.133 434.007 323.733 434.736 322.237 435.196L320.744 435.656C318.923 436.216 317.035 436.531 315.13 436.593L305.838 436.892C303.616 436.964 301.403 437.206 299.217 437.616L297.952 437.853C295.658 438.283 293.417 438.964 291.272 439.883C288.768 440.957 286.411 442.347 284.261 444.019L283 445L281.853 446.147C279.956 448.044 278.25 450.124 276.762 452.357L276.532 452.703C275.512 454.232 274.613 455.838 273.843 457.507C272.619 460.159 271.728 462.952 271.19 465.822Z" fill="#555BA5" stroke="#555BA5" stroke-width="0.3"/>
<path d="M254.5 517L262.438 513.24C263.478 512.747 264.553 512.334 265.655 512.003C267.872 511.338 270.177 511.014 272.492 511.041L297.105 511.331C306.631 511.443 316.066 513.191 325 516.5L341 523L355.5 528.5L360.458 530.731C363.792 532.231 366.825 534.325 369.409 536.909C370.468 537.968 371.447 539.105 372.337 540.309L379.5 550L390 565L399 579L406 590L417.5 608.5L426.5 622L424.796 629.302C421.272 644.408 416.49 659.192 410.5 673.5L394 655.5L380 640.5L362.5 621L356.5 615V645.5V654L367 657V677.5H349L349.947 695.723C350.647 709.198 349.826 722.709 347.5 736L344.469 747.259C344.158 748.412 343.662 749.507 343 750.5L298 750L216 755L212 734L209.5 704L207 677.5L202 613.5V603.696C202 599.946 201.163 596.243 199.551 592.857C197.873 589.334 197.036 585.469 197.106 581.568L197.5 559.5L199 550L200.378 543.799C200.789 541.951 201.559 540.202 202.644 538.651C203.866 536.905 205.459 535.452 207.31 534.395L211.724 531.872C213.902 530.627 216.201 529.606 218.586 528.825L244 520.5L254.5 517Z" fill="#DFE5F5" stroke="#DFE5F5" stroke-width="0.3"/>
<path d="M356 608V615H357L388.5 649.5L411.5 674.5L418 651L397.5 639L376 623L366.5 615L356 608Z" fill="#CFD5EB" stroke="#CFD5EB" stroke-width="0.3"/>
<path d="M410.257 675H376V678H533V675H412L436.5 586H434.5L413.5 663.5L410.257 675Z" fill="#35327F" stroke="#35327F" stroke-width="0.3"/>
<path d="M367 675V658.5H367.5L377.5 655L380 654.5L383.5 654L389.5 654.5L395.5 656.5L401 660L404 663L406.353 666.137C406.779 666.706 407.08 667.359 407.234 668.053L407.683 670.072C407.885 670.984 407.707 671.94 407.188 672.717C407.063 672.905 406.918 673.082 406.758 673.242C406.267 673.733 405.636 674.073 404.955 674.209L404.288 674.342C403.765 674.447 403.253 674.623 402.776 674.862C401.943 675.279 401.015 675.5 400.084 675.5H394.325C394.11 675.5 393.896 675.535 393.692 675.603L389.649 676.95C389.55 676.983 389.448 677.009 389.345 677.026L386.5 677.5L383.663 677.973C383.555 677.991 383.445 678 383.334 678H378.385C378.131 678 377.879 677.951 377.642 677.857L375.762 677.105C375.588 677.035 375.405 676.991 375.219 676.972L370.5 676.5L368 675.5L367 675Z" fill="#E6B2B6" stroke="#E6B2B6" stroke-width="0.3"/>
<path d="M412 675L436.5 586H558.5L533 675H481H412Z" fill="#555CA0" stroke="#555CA0" stroke-width="0.3"/>
<ellipse cx="490.227" cy="630.992" rx="6.11235" ry="8.00593" transform="rotate(40.9821 490.227 630.992)" fill="#DBE1F1"/>
<path d="M277.5 630.5L265.5 585L278 603.5L283.538 609.96C289.826 617.297 296.922 623.899 304.693 629.642L312.04 635.073C314.672 637.018 317.509 638.671 320.5 640L328 642.5C332.324 643.498 336.732 644.086 341.166 644.256L347.5 644.5H350.459C352.483 644.5 354.503 644.667 356.5 645V653.855L308.5 640.5L277.5 630.5Z" fill="#D0D6EC" stroke="#D0D6EC" stroke-width="0.3"/>
<path d="M347.5 673.5L250 666.5C250.328 668.467 251.154 670.318 252.4 671.875L253.006 672.633C253.996 673.87 255.171 674.947 256.49 675.826L258.936 677.457C260.973 678.815 263.149 679.951 265.428 680.847L268.638 682.108C273.529 684.029 278.63 685.364 283.835 686.085L308.5 689.5H347.5V673.5Z" fill="#D0D6EC" stroke="#D0D6EC" stroke-width="0.3"/>
<path d="M297 559.5L298.288 547.051C298.428 545.694 298.331 544.323 298 543L304 542L304.5 544L305.5 549L309 570L312 595.5L314 620.5L315.5 636.5L318.5 681.5L319 692.5L319.5 704V716.5L319.49 716.578C319.164 719.186 318.581 721.756 317.75 724.25L317.709 724.373C316.905 726.785 315.865 729.112 314.603 731.32C313.205 733.766 311.544 736.052 309.649 738.136L307.5 740.5L298.5 731.5L296.122 728.409C294.394 726.163 293.17 723.571 292.533 720.809C292.179 719.275 292.01 717.704 292.029 716.13L293 636L293.5 621V608.5L294 596.5L295 580.5L296 570L297 559.5Z" fill="#D6652D" stroke="#D6652D" stroke-width="0.3"/>
<path d="M249.5 666L277.5 631L356 654L351 677.5L331.5 676.5L299 675L255.5 671.5L251.5 669L249.5 666Z" fill="#DFE5F5" stroke="#DFE5F5" stroke-width="0.3"/>
<path d="M309 493L311 511.5L308.496 519.011C307.834 520.998 306.956 522.906 305.879 524.702C304.962 526.231 303.904 527.671 302.719 529.003L300.5 531.5L300.11 531.356C294.06 529.127 288.313 526.152 283 522.5L276.5 517.5L269.5 510.5L271.5 503.5L273 496L273.5 489V480L275.051 481.723C277.005 483.894 279.285 485.749 281.808 487.222C283.267 488.072 284.798 488.79 286.384 489.367L286.983 489.585C288.659 490.194 290.378 490.676 292.126 491.025L294.611 491.522C297.866 492.173 301.164 492.588 304.479 492.762L309 493Z" fill="#D98789" stroke="#D98789" stroke-width="0.3"/>
<path d="M229 751.5L221.607 752.508C219.205 752.836 216.83 753.334 214.5 754L211.5 731.5L210 708L205.5 662L203.5 630L202 614V606L201.5 598L207.5 606L224.5 631.5L238.635 651.872C240.514 654.579 241.672 657.721 242 661L243 672.5L244.5 683.5L245.286 686.33C246.417 690.401 248.361 694.201 251 697.5L257.5 704L268 713.5L277 722.5L288.5 735L292 739C293.994 741.659 295.694 744.526 297.069 747.552L297.5 748.5L287 748L248.5 749.5L229 751.5Z" fill="#D0D6EC" stroke="#D0D6EC" stroke-width="0.3"/>
<path d="M259 527.5L256 523.5L255 521.5L254 518.5V517.75V517L255 516.5L256 520.5L257.5 523.5L262 529L267 533.5L273 538L282 544.5L292.5 551.5L291.5 553L280.5 546L270.5 538.5L264 533L259 527.5Z" fill="#D0D6EC" stroke="#D0D6EC" stroke-width="0.3"/>
<path d="M296.5 543.5L300 533L306.5 541L304.5 543.5L302.896 542.858C302.31 542.624 301.671 542.555 301.048 542.659L300.56 542.74C299.6 542.9 298.808 543.577 298.5 544.5L296.5 543.5Z" fill="#C5582D" stroke="#C5582D" stroke-width="0.3"/>
<path d="M312.5 546.5L300.5 532V533L306.5 541L312.5 548.5L317.5 542L321.5 536L326 526.5L326.5 524L327 521.5V519.5L326.5 522L325.5 526L320 536.5L317 541L316 542.5L314 545L312.5 546.5Z" fill="#D0D6EC" stroke="#D0D6EC" stroke-width="0.3"/>
<path d="M521 963.5L467.5 856L480 845L541 963.5H521Z" fill="#2C295E" stroke="#2C295E" stroke-width="0.3"/>
<path d="M537.5 998.5L532.5 979H567L567.754 979.431C569.58 980.474 571.505 981.335 573.5 982L576.5 983.25L578 984L581.5 986L585 988.5L587.5 990.5C589.496 992.496 591.314 994.663 592.933 996.976L594 998.5H537.5Z" fill="#221E50" stroke="#221E50" stroke-width="0.3"/>
<path d="M569.5 981H521L497 957L485.5 943.5L475 929.5L466 916L461 904.5L479 864L502.5 914.5L515 939L527.5 962.5L502.5 912.5L479 860L493.5 796.5L569.5 981Z" fill="#343383" stroke="#343383" stroke-width="0.3"/>
<path d="M414 950L420.5 934.5L443 936C443.987 942.907 446.549 949.495 450.489 955.254L451 956L452.883 959.531C454.292 962.172 455.476 964.928 456.423 967.768L457.367 970.601C458.12 972.859 458.592 975.2 458.775 977.572C458.925 979.519 458.878 981.476 458.636 983.414L458.5 984.5L414 950Z" fill="#221E50" stroke="#221E50" stroke-width="0.3"/>
<path d="M426 710.5L340.5 751L391.5 841L412 841.5L411 851.5L410 870V887V908.5L411.5 936.5L457 950.5L470.625 896.625L484.25 842.75L511.5 735L514.073 723.849C514.356 722.624 514.447 721.362 514.342 720.109C514.12 717.445 513.025 714.927 511.226 712.949L509 710.5H426Z" fill="#2C295E" stroke="#2C295E" stroke-width="0.3"/>
<path d="M280 839.5L272.5 827.5L401 841L399 847.5L398.661 848.305C396.224 854.092 393.328 859.675 390 865L384.5 872.5L377 880.5L371.5 885L360.5 892C351.512 896.327 342.217 899.984 332.69 902.941L332.5 903L319.5 905.5L310.5 907C309.835 903.34 308.853 899.745 307.567 896.255L302.5 882.5L297 870L290 856.5L280 839.5Z" fill="#C4592D" stroke="#C4592D" stroke-width="0.3"/>
<path d="M222 752.5L212.5 754.5L267 826.5L280 832L292.5 835.5L303.5 838L319 839.5L412 841.468L419.5 806.5L438 756L343.5 749H328.5L296 748L260.5 749L239.5 750.5L222 752.5Z" fill="#343383" stroke="#343383" stroke-width="0.3"/>
<path d="M420.5 809L273.5 780.5L421.5 806.5L420.5 809Z" fill="#2C295E" stroke="#2C295E" stroke-width="0.5"/>
<path d="M157.5 690.5L159 688.5C159.999 689.832 161.091 691.091 162.268 692.268L166 696L171.5 702L178.5 710L184.5 716.5L197 730.5L208 743.5L220.5 758L229 768.5L236.5 778.5L245.5 790L251 797.5L261 811L269.5 823.5L275 831.5L280.5 841L286 849.5L290.5 857.5L296 868L299.5 875L302.5 882.5L305.5 889.5L307 894L308.5 899.5L309.138 901.627C309.71 903.532 310 905.511 310 907.5H307.5L306.5 902.5L305.5 898.5L303.5 892.5L301 886L298.5 880.5L295 872.5L290.5 863.5L285 853L280 845L273 833.5L267.5 825L260 814L252.5 803.5L244 792L234 778.5L226 768.5L215 755L205 743L196.5 733.5L189.5 725.5L183.5 718.5L176 710L167 700.5L157.5 690.5Z" fill="#D58B27" stroke="#D58B27" stroke-width="0.3"/>
<rect x="271" y="906" width="21" height="79" fill="#D2872C"/>
<path d="M161.5 694L157.5 690L152 698L147.5 706.5L144 715.5L141.5 724.5L139.5 733.5L137.5 744L136.5 752.5L136 761.5V776L136.5 784.5L137.5 792.5L139 800.5L140.5 808.5L143 817.5L147 828.5L151.5 838.5L157.5 849C163.49 857.32 170.251 865.251 177.5 872.5L188.5 881L200.5 888.5L210.5 893L219.5 896.5L233.5 901L249.5 904.5L260.5 906.5L271 908L279 909H286.5L299 908.5L308 907.5C308 906.838 307.893 906.18 307.684 905.551L307 903.5L306 900.5L304 894L301.5 887L299 881L296 875L292.5 867.5L287.5 858L283 849.5L280.25 845.125L277.5 840.75L274.75 836.375L272 832L267.5 825L265 821L261 815.5L258 811L254.5 806L251 801L248 797L245 793L241.5 788.5L237 782.5L233.5 778L229.5 773L226 768.5L222.5 764L218.5 759L214 753.5L211.5 751L207.5 746L203.5 741.5L199.5 736.5L195.5 732L190.5 726L187 722L183 717.5L179 713L175.5 709.5L172 705.5L169 702.5L165 698L161.5 694Z" fill="#D3642C" stroke="#D3642C" stroke-width="0.3"/>
<rect x="188" y="984" width="184" height="15" rx="7.5" fill="#D2872C"/>
<path d="M654 999.5L648 981L688 979.5L692.5 983.5L693.5 984L697 985.5L700.5 987.5L703.5 989.5L707 992.5L710.5 996L713 999.5H654Z" fill="#221E50" stroke="#221E50" stroke-width="0.5"/>
<path d="M991.5 352L984.5 337.5L899 388.5L841.5 371.5L812 363L796.048 359.012C792.026 358.007 787.914 357.405 783.772 357.217C780.595 357.073 777.412 357.172 774.251 357.513L760.5 359L740 363L694 367.5L673.5 371L661 373.5L652.5 375.5L648.749 376.864C647.585 377.287 646.456 377.802 645.373 378.404L643.948 379.195C642.988 379.729 642.106 380.394 641.328 381.172C640.777 381.723 640.282 382.326 639.85 382.975L633.5 392.5L626.5 404.5L617.5 421.5L608 440.5L602 453.5L597 465L591.5 478L589 486L587 496L586.214 502.678C586.072 503.891 586.034 505.113 586.102 506.331L586.295 509.811C586.428 512.204 587.345 514.486 588.904 516.305C589.301 516.768 589.735 517.196 590.203 517.586L590.897 518.164C591.963 519.053 593.112 519.837 594.328 520.505L602.5 525L619.5 532.5L658 545.5L661 512L653.675 508.157C641.932 501.997 639.149 486.416 648.033 476.571L648.715 475.816C648.905 475.605 649.109 475.409 649.327 475.228L649.975 474.687C651.227 473.644 652.942 473.353 654.468 473.926C655.458 474.297 656.287 475.003 656.812 475.921L657.486 477.101C657.827 477.698 658.093 478.335 658.277 478.997L660.5 487L663.5 503.5C664.165 509.821 664.269 516.188 663.81 522.528L662 547.5L659 568L656 588L655.523 593.243C655.508 593.414 655.479 593.584 655.437 593.751C654.943 595.727 656.318 597.682 658.346 597.885L659.5 598H668L681.5 597.5L699.5 598L715.5 597.5H727.5L753 598H772.5L786.858 599.267C788.617 599.422 790.385 599.441 792.146 599.324L795.899 599.073C796.629 599.025 797.349 598.873 798.037 598.623C800.776 597.627 802.727 595.18 803.089 592.288L808 553L811.5 516.5L813.5 495.5L814.5 479.5L815 458V430.609C815 429.383 815.866 428.327 817.068 428.086C817.354 428.029 817.648 428.021 817.936 428.062L821 428.5L843.5 432L868 434.5H891.5L904.5 433L909.537 432.44C915.054 431.827 920.263 429.585 924.5 426L936 414.5L946 403L954.5 394L967 380L977.5 368.5L986.5 358L991.5 352Z" fill="#D2872C" stroke="#D2872C" stroke-width="0.3"/>
<path d="M985.553 334.262L984.5 337L991.5 352H992.128C993.699 352 995.26 351.747 996.75 351.25C998.24 350.753 999.641 350.019 1000.9 349.077L1002.7 347.723C1004.23 346.577 1005.64 345.281 1006.91 343.854L1007.01 343.738C1008.33 342.25 1009.51 340.634 1010.51 338.913L1012.5 335.5L1014.14 332.229C1015.04 330.412 1016.08 328.664 1017.25 327L1018.43 325.31C1018.81 324.771 1019.15 324.205 1019.44 323.616L1020.89 320.711C1021.29 319.926 1021.41 319.033 1021.23 318.172C1021.08 317.408 1020.71 316.706 1020.15 316.155L1019.92 315.922C1019.32 315.317 1018.57 314.877 1017.75 314.642L1016.93 314.409C1015.98 314.139 1015 314.039 1014.02 314.114L1009 314.5L1005.43 315.265C1003.15 315.753 1000.96 316.566 998.921 317.679C997.312 318.557 995.808 319.615 994.439 320.832L994.109 321.125C992.706 322.372 991.433 323.756 990.307 325.257L989 327C987.669 329.33 986.516 331.758 985.553 334.262Z" fill="#AF7142" stroke="#AF7142" stroke-width="0.3"/>
<path d="M650.075 474.694L649 475.5L649.34 475.063C651.425 472.382 654.031 470.15 657 468.5L657.433 468.284C658.449 467.776 659.605 467.621 660.718 467.844C661.236 467.947 661.735 468.131 662.197 468.387L664.177 469.487C665.389 470.161 666.526 470.96 667.569 471.873L670 474L675 479L679.5 483.5L683.5 488.5L690 496.5L693 500.5L697.5 506.5L701 511L707 520L707.551 520.735C708.18 521.573 708.669 522.506 709 523.5L710 527L716.876 575.564C717.623 580.841 717.832 586.18 717.5 591.5L717.109 593.847C717.037 594.28 716.9 594.7 716.704 595.092C715.965 596.57 714.461 597.51 712.808 597.527L665 598H662H659.405C658.807 598 658.215 597.886 657.659 597.664L657.488 597.595C656.529 597.212 655.745 596.49 655.283 595.567C655.096 595.191 654.965 594.789 654.896 594.375L654.775 593.648C654.593 592.558 654.611 591.445 654.828 590.362L655 589.5L656 584.5L657 579L658 573.5L659 567L660 560L661 554L661.5 550L661.8 547L663.6 520.007C663.866 516.008 663.833 511.994 663.5 508L662.5 501.5L661.5 494.5L660.5 489L659 483.5L657.814 479.547C657.605 478.85 657.336 478.173 657.011 477.522L656.713 476.927C656.571 476.643 656.404 476.372 656.214 476.118C655.432 475.076 654.294 474.359 653.017 474.103L652.837 474.067C652.613 474.023 652.385 474 652.156 474C651.406 474 650.675 474.243 650.075 474.694Z" fill="#C97B29" stroke="#C97B29" stroke-width="0.5"/>
<path d="M703.5 583L715.5 507L781.5 507.5L768.5 583H703.5Z" fill="#DDE2F5" stroke="#DDE2F5" stroke-width="0.5"/>
<path d="M704.5 536L701.5 537.5L698 554C699.979 555.319 702.207 556.22 704.547 556.645L706.5 557L708.034 557.279C710.663 557.757 713.349 557.831 716 557.5L718.5 557C720.497 556.667 722.465 556.178 724.385 555.538L726 555L726.133 554.947C727.708 554.317 729.337 553.833 731 553.5L733.5 553L738 552L739.853 551.382C740.6 551.133 741.253 550.662 741.726 550.032C742.228 549.362 742.5 548.547 742.5 547.709V547.244C742.5 546.426 742.31 545.619 741.944 544.888L741.843 544.685C741.615 544.23 741.332 543.805 741.001 543.418L739.566 541.744C738.857 540.916 738.069 540.141 737.231 539.443C736.09 538.492 734.829 537.664 733.5 537L730.327 535.237C729.443 534.746 728.525 534.322 727.579 533.967C725.867 533.325 724.077 532.916 722.257 532.751L719.5 532.5H716.561C715.522 532.5 714.485 532.586 713.46 532.757C712.488 532.919 711.531 533.156 710.596 533.468L709 534L704.5 536Z" fill="#AF7142" stroke="#AF7142" stroke-width="0.5"/>
<path d="M991.5 352.5L990 349.5L973.5 366L959 380L947.5 392L933 406L925.211 412.983C920.743 416.989 915.994 420.671 911 424C910.342 424.329 909.617 424.5 908.882 424.5H901.5L881.5 423.5L865 422C863.167 421.833 859.4 421.5 859 421.5C858.6 421.5 854.833 421.167 853 421L840.5 420L829.6 419.297C826.549 419.1 823.485 419.337 820.5 420L818.305 420.549C817.134 420.841 816.092 421.51 815.338 422.453L815.217 422.604C814.746 423.193 814.423 423.886 814.275 424.625C814.096 425.522 814.181 426.452 814.521 427.302L815 428.5C815.833 428.333 817.934 428.5 818.5 428.5C819.5 428.5 830 430.667 835.5 431.5L854.5 434L866.5 435H886.5L898 434.5L914.466 432.72C915.806 432.575 917.099 432.141 918.255 431.447C918.75 431.15 919.218 430.807 919.65 430.422L923.5 427L945.5 404L968 379L991.5 352.5Z" fill="#C97B29" stroke="#C97B29" stroke-width="0.3"/>
<path d="M699.5 348L699.581 347.435C700.193 343.15 700.5 338.828 700.5 334.5L722.074 341.567C727.014 343.186 732.095 344.335 737.25 345V347.5V349.751L738 355.5L739 360.5L739.5 363L739.642 364.137C739.879 366.029 739.763 367.949 739.3 369.799L739.271 369.915C739.091 370.637 738.853 371.344 738.559 372.028L738.256 372.736C737.757 373.901 737.04 374.96 736.143 375.857C735.386 376.614 734.512 377.244 733.554 377.723L733.092 377.954C732.366 378.317 731.607 378.612 730.826 378.836L730.604 378.899C729.208 379.298 727.764 379.5 726.312 379.5H725.919C724.643 379.5 723.371 379.368 722.122 379.105L718.628 378.369C715.88 377.791 713.183 376.994 710.563 375.986L708 375L701 371.5L694 367.5L695 364.5L696 361.5L698 355L699.5 348Z" fill="#9F5F33" stroke="#9F5F33" stroke-width="0.5"/>
<path d="M701.028 335.056L700 333C697.355 327.38 695.756 321.326 695.28 315.134L694.5 305L717 284L741.5 280.5L742.842 282.065C743.943 283.35 744.883 284.765 745.64 286.279C746.212 287.424 746.677 288.619 747.029 289.85L748.5 295L750.5 302.5L752 310.5C752.666 313.496 753.103 316.538 753.307 319.6L753.5 322.5V333L753.116 336.073C753.039 336.689 752.901 337.297 752.704 337.887L752.473 338.582C752.162 339.515 751.638 340.362 750.943 341.057C750.648 341.352 750.325 341.616 749.978 341.848L749.932 341.879C749.315 342.29 748.635 342.599 747.92 342.795L743.5 344L737 345.5L733.887 345.945C731.299 346.314 728.688 346.5 726.073 346.5H724.623C722.544 346.5 720.47 346.328 718.42 345.987L717.805 345.884C716.271 345.628 714.759 345.253 713.283 344.761L712.027 344.342C710.35 343.783 708.755 343.003 707.283 342.022L707.027 341.851C705.682 340.955 704.467 339.878 703.415 338.65C702.475 337.554 701.674 336.347 701.028 335.056Z" fill="#AF7142" stroke="#AF7142" stroke-width="0.5"/>
<path d="M715.637 249H713.541C711.517 249 709.497 249.167 707.5 249.5L708 250.499C708.332 251.164 708.574 251.869 708.719 252.597C708.905 253.526 708.932 254.479 708.798 255.416L708.764 255.655C708.589 256.874 708.186 258.049 707.575 259.118L707.08 259.985C706.694 260.661 706.256 261.305 705.77 261.913L705.675 262.031C704.894 263.007 704.007 263.894 703.031 264.675C702.345 265.224 701.617 265.719 700.854 266.155L698.5 267.5L694 269.5L691.367 270.697C689.461 271.563 687.655 272.634 685.98 273.89L685.695 274.104C683.577 275.692 681.708 277.589 680.151 279.73L679.565 280.535C678.857 281.509 678.253 282.555 677.765 283.655C676.928 285.536 676.438 287.553 676.317 289.608L676.237 290.968C676.08 293.638 676.359 296.316 677.063 298.896L677.5 300.5L680 307.5C682.317 313.127 685.555 318.329 689.582 322.893L691 324.5L695.5 329L699.5 332.5V325V321.641C699.5 319.884 699.658 318.13 699.973 316.401C700.323 314.472 700.867 312.583 701.595 310.762L702.5 308.5L703.621 306.257C704.538 304.424 705.634 302.685 706.893 301.067C707.962 299.691 709.146 298.408 710.43 297.231L712.304 295.513C713.765 294.174 715.341 292.965 717.014 291.9C718.999 290.637 721.111 289.583 723.314 288.757L724 288.5L729 286.5L733 285.5L735.609 284.63C736.868 284.211 738.096 283.702 739.282 283.109L740.164 282.668C741.715 281.893 743.161 280.922 744.466 279.78L745.223 279.117C746.071 278.376 746.816 277.525 747.441 276.588L747.572 276.392C748.187 275.469 748.662 274.46 748.981 273.398C749.16 272.8 749.289 272.189 749.366 271.57L749.5 270.5V269.09C749.5 268.366 749.411 267.645 749.236 266.943C749.079 266.316 748.854 265.709 748.565 265.131L748.451 264.902C748.151 264.302 747.798 263.73 747.395 263.193L746.5 262C744.84 260.008 742.932 258.237 740.822 256.73L740.5 256.5L739.555 255.87C737.193 254.295 734.658 252.997 732 252L728.571 250.945C726.526 250.316 724.439 249.837 722.324 249.511C720.111 249.171 717.876 249 715.637 249Z" fill="#555BA5" stroke="#555BA5" stroke-width="0.5"/>
<path d="M782 1000L775.5 979.5L820 982.5V983.5L821.5 984L823.5 985L826.5 986.5L829.5 988.5L833 991L836.5 994L841.5 1000H782Z" fill="#221E50" stroke="#221E50" stroke-width="0.5"/>
<path d="M758.5 598H752H747.5L744.748 598.5L741.5 601.5L740 603.5L739 740L739.5 769V776L740.5 786.5L741.5 799.5L743 816.5L746.5 843L749 862L751.5 878.5L756.5 908L760 930.5L763.5 947.5L767.5 967.5L771 983L827 983.5L826.5 979.5L826 965.5L825 954L824.5 947L824 939L823.5 931L823 924L822.5 917.5V911.5L822 904.5L821.5 899L821 891.5L820.5 883L820 875.5L819.5 869V864.5L819 859.5L818.5 854L818 846L817.5 837.5L817 829.5L816.5 818.5L816 811.5L815.5 803L815 796L814.5 790L814 783L813.5 773L813 765L812 755.5L811.5 747.5V742L811 735L810.5 728.5L810 717.5L809.5 715L807 677.5V675L806.5 668.5L806 660.5L805.5 653.5L805 645.5L804.5 638.5L804 631L803.5 621.5L803 613L802.5 601.5L802 596L798.5 598.5L793 599.5H787.5L779.5 599L774 598.5L768 598H763H758.5Z" fill="#2C295E" stroke="#2C295E" stroke-width="0.5"/>
<path d="M657.5 598L656 597L655.5 601L654 614L653 630.5L651.5 656L650.5 675L649.5 715.5L649 726L648.5 747L648 760.5V774.5L647.5 798.5L646.5 821L646 845.5L645.5 863.5L645 888.5V943V968.5L645.5 983.5H700L701 982L703 978L705.5 970.5L708 963L709.5 956.5L711.5 947.5L713 939.5L715 931.5L716.5 924.5L718.5 915.5L720 908.5L722 898.5L724.5 885L727.5 866L728.5 861L729 856L730 849.5L731 843.5L732 835L732.5 830.5L733.5 823L734 816.5L735 808.5L736 802.5L736.5 796L737 788.5L737.5 785L738 778.5L739 769.5L742 731L743 717L744.5 670L746 668.5L748.5 666.5L752 664.5V598L742 597.5H717.656H680.5H672L663.5 598L660 598.5L657.5 598Z" fill="#343383" stroke="#343383" stroke-width="0.5"/>
<path d="M663.5 624.5V623H664.964C667.319 623 669.67 622.833 672 622.5L675.5 622L675.806 621.924C678.265 621.309 680.67 620.498 683 619.5L686.5 618L686.636 617.932C688.54 616.98 690.338 615.83 692 614.5L694.5 612.5L697 610.5L699 608.5L701 606L702.5 604L704 605L701.5 608L701.293 608.237C699.103 610.739 696.659 613.005 694 615L692.664 615.935C690.225 617.643 687.663 619.168 685 620.5L681 622L675.5 623.5L674.436 623.664C670.817 624.22 667.161 624.5 663.5 624.5Z" fill="#211D52" stroke="#211D52" stroke-width="0.5"/>
<path d="M789.5 613.5L786.562 610.562C785.192 609.192 783.996 607.66 783 606L784 605.5C784.996 607.16 786.192 608.692 787.562 610.062L788 610.5L790.5 613L793 615.5C794.656 617.156 796.568 618.534 798.662 619.581L799.5 620L801.5 621L802.5 621.5V622.5C801.846 622.5 801.204 622.322 800.643 621.986L799 621C795.679 619.008 792.615 616.615 789.877 613.877L789.5 613.5Z" fill="#211D50" stroke="#211D50" stroke-width="0.5"/>
<path d="M654 544L660 511.5L703 536L697 559L654 544Z" fill="#D2872C" stroke="#D2872C" stroke-width="0.5"/>
<path d="M1047 678.5V595L1054 596V600.5L1055 600.93C1056.66 601.64 1058.22 602.561 1059.64 603.668C1061.21 604.883 1062.59 606.312 1063.75 607.913L1064.18 608.503C1065.39 610.158 1066.33 611.988 1066.98 613.929C1067.65 615.963 1068 618.093 1068 620.237V666.425C1068 668.756 1067.31 671.035 1066.02 672.975C1065.34 673.985 1064.52 674.886 1063.57 675.645L1063.47 675.727C1061.22 677.522 1058.43 678.5 1055.56 678.5H1047Z" fill="#E8EFF9" stroke="#E8EFF9" stroke-width="0.5"/>
<path d="M1047 678.5V595L1039.5 596V600.5L1038.6 600.95C1037.2 601.648 1035.88 602.483 1034.65 603.441L1034.56 603.506C1032.86 604.829 1031.36 606.384 1030.09 608.126L1029.82 608.503C1028.61 610.158 1027.67 611.988 1027.02 613.929C1026.35 615.963 1026 618.093 1026 620.237V666.425C1026 668.756 1026.69 671.035 1027.98 672.975C1028.66 673.985 1029.48 674.886 1030.43 675.645L1030.53 675.727C1032.78 677.522 1035.57 678.5 1038.44 678.5H1047Z" fill="#EDF3FF" stroke="#EDF3FF" stroke-width="0.5"/>
<path d="M1039.5 595.081V596H1054V595.081C1054 594.034 1053.83 592.994 1053.5 592H1040C1039.67 592.994 1039.5 594.034 1039.5 595.081Z" fill="#DE903B" stroke="#DE903B" stroke-width="0.5"/>
<path d="M1045.34 602.198L1047.5 601L1051.24 603.382C1052.41 604.125 1053.49 604.994 1054.47 605.972C1055.49 606.988 1056.38 608.115 1057.14 609.332L1057.18 609.384C1058.06 610.788 1058.74 612.304 1059.22 613.89C1059.74 615.621 1060 617.418 1060 619.225V667.095C1060 669.618 1059.12 672.062 1057.5 674L1057.16 674.406C1055.75 676.102 1053.89 677.37 1051.8 678.068C1049.96 678.68 1048 678.834 1046.09 678.515L1044.88 678.314C1043.63 678.106 1042.42 677.712 1041.29 677.146L1041.2 677.099C1039.75 676.374 1038.44 675.348 1037.39 674.116C1036.48 673.057 1035.75 671.832 1035.26 670.526C1034.76 669.186 1034.5 667.767 1034.5 666.337V623V620.5L1034.75 616.998C1034.91 614.693 1035.57 612.45 1036.68 610.421C1037.55 608.819 1038.69 607.376 1040.05 606.155L1041.01 605.294C1042.33 604.102 1043.79 603.063 1045.34 602.198Z" fill="#E0E6F5" stroke="#E0E6F5" stroke-width="0.5"/>
<rect x="1026" y="623" width="42" height="29" fill="#F3D370"/>
<path d="M962 713L997 712V925L962 926V713Z" fill="#C97B29"/>
<rect x="986" y="711" width="11" height="214" fill="#D2872C"/>
<path d="M1013.5 925.5L1007 924C1001.68 923.003 996.273 922.573 990.863 922.717L972.898 923.196C965.327 923.398 957.807 924.507 950.5 926.5L946.666 927.88C940.902 929.955 935.355 932.587 930.102 935.739L929.286 936.228C925.103 938.738 921.127 941.628 917.447 944.829C913.506 948.255 909.876 952.067 906.65 956.173L904.838 958.479C901.956 962.147 899.525 966.146 897.595 970.392C896.201 973.458 895.075 976.639 894.23 979.9L893.913 981.121C892.641 986.027 891.884 991.052 891.654 996.115L891.5 999.5H1074.5V998.5L1074 991.5L1073.5 987L1072 981L1070.5 976L1068.5 971L1066 966L1063 961L1059.5 956C1058.17 954.333 1055.4 951 1055 951C1054.6 951 1052.17 948.333 1051 947L1050.84 946.851C1047.28 943.621 1043.49 940.663 1039.5 938L1036 935.5L1030.5 932.5L1025 930L1020 928L1013.5 925.5Z" fill="#D2872C" stroke="#D2872C" stroke-width="0.3"/>
<path d="M924.5 998.5H891.5V994.5L892 990C892.333 987.337 892.854 984.7 893.561 982.111L894 980.5C894.665 977.838 895.56 975.239 896.675 972.732L897 972L899 967.5L901.5 963L905 958L908 954L910.5 951L914 947.5L918.5 943.5L922.5 940.5L927.5 937L932 934.5C934.662 932.836 937.456 931.393 940.354 930.186L942 929.5L945.5 928L949.5 926.5L954.5 925L960.5 923.5L968 922L975.5 921H982.5L989 921.5L993.5 922L998.5 922.5L995.5 923L991 924L985.5 925.5L981 927L976 929L970.5 931.5L965 934.5L959.5 938L955 941L951 944.5L947.5 947.5L943.5 951.5L940 955.5L937.5 959L934.5 964C932.503 967.329 930.75 970.799 929.257 974.382L929 975L928.58 976.261C927.196 980.413 926.165 984.674 925.5 989L924.5 998.5Z" fill="#C97B29" stroke="#C97B29" stroke-width="0.3"/>
<rect x="327" y="678" width="1312" height="38" rx="6" fill="#D2872C"/>
<rect x="984" y="645" width="33" height="33" fill="#E6EDF7"/>
<rect x="993" y="645" width="15" height="33" fill="#DBE1F1"/>
<rect x="984" y="673" width="33" height="5" fill="#E0E6F5"/>
<rect x="567" y="645" width="33" height="33" fill="#E6EDF7"/>
<rect x="576" y="645" width="15" height="33" fill="#DBE1F1"/>
<rect x="567" y="673" width="33" height="5" fill="#E0E6F5"/>
<path d="M1410 543.185V535H1425L1421.9 560.037L1411.5 561.5L1411.03 558.593L1410.52 552.815L1410 543.185Z" fill="#D98789" stroke="#D98789" stroke-width="0.5"/>
<path d="M1396 498L1398 492L1414.5 495.5L1426.5 538L1421.5 537.5H1418L1414.72 537.114C1411.25 536.705 1407.82 535.995 1404.47 534.991L1400.66 533.847C1399.89 533.616 1399.14 533.319 1398.42 532.959L1396.11 531.807C1394.43 530.967 1393.13 529.522 1392.47 527.764C1392.16 526.928 1392 526.043 1392 525.15V518.566C1392 515.861 1392.25 513.162 1392.75 510.503L1393.5 506.5L1396 498Z" fill="#E6B2B6" stroke="#E6B2B6" stroke-width="0.5"/>
<path d="M1275.5 605.5H1172L1205.5 675.5L1286.5 675L1309.5 669L1275.5 605.5Z" fill="#D0D6EC" stroke="#D0D6EC" stroke-width="0.5"/>
<path d="M1277 603.5H1167.5L1203.5 678H1311.5V674.5H1205.5L1172.5 606H1275L1305 661.5H1308.5L1277 603.5Z" fill="#545BA5" stroke="#545BA5" stroke-width="0.5"/>
<path d="M1249 674L1247 662.5H1245.68C1245.23 662.5 1244.79 662.395 1244.39 662.195C1244.13 662.066 1243.86 661.976 1243.57 661.928L1242.07 661.678C1241.36 661.559 1240.64 661.5 1239.92 661.5H1236.32C1235.44 661.5 1234.56 661.573 1233.7 661.717C1232.57 661.905 1231.46 662.214 1230.4 662.64L1229.5 663L1227.5 664L1225.81 665.126C1224.94 665.707 1224.13 666.373 1223.39 667.114L1223.25 667.251C1222.42 668.081 1221.69 669.009 1221.09 670.014L1220.91 670.322C1220.64 670.773 1220.4 671.246 1220.21 671.735L1219.8 672.744C1219.6 673.243 1219.5 673.776 1219.5 674.314V674.492C1219.5 674.829 1219.55 675.163 1219.66 675.482L1219.7 675.591C1219.89 676.18 1220.28 676.687 1220.8 677.031C1221.26 677.337 1221.79 677.5 1222.35 677.5H1230.21C1230.73 677.5 1231.25 677.584 1231.75 677.75C1232.25 677.916 1232.77 678 1233.29 678H1238.62C1239.87 678 1241.11 677.827 1242.3 677.485C1243.43 677.163 1244.51 676.695 1245.51 676.092L1249 674Z" fill="#E0ACB0" stroke="#E0ACB0" stroke-width="0.5"/>
<path d="M1393.36 564.77L1408 562C1418.98 560.336 1430.08 559.5 1441.19 559.5H1482.5L1493.5 599.5L1496 610L1499 622L1501.5 634.5L1504 645.5L1506 656L1509 670L1511.5 682.5L1513.5 692.5L1421.5 737L1421 731.5L1420 725L1417.5 715.5L1413.5 703L1410 694L1405.5 685L1401 677.5L1400.8 677.221C1396.94 671.748 1393.5 665.991 1390.5 660L1387.5 652.5L1385 644L1384.5 642L1356.5 678.5L1308 677.5L1278 676.5L1249.5 674L1247 662.5L1337 653.5L1348 628L1363.5 592L1372.61 575.079C1373.53 573.38 1374.8 571.9 1376.34 570.742C1377.44 569.919 1378.66 569.271 1379.96 568.82L1385.79 566.789C1388.26 565.931 1390.79 565.256 1393.36 564.77Z" fill="#EED070" stroke="#EED070" stroke-width="0.5"/>
<path d="M1386.34 639.548L1384.5 642.5L1386 648L1388.5 655.5L1392 663.5L1396 670.5L1401 678L1407.5 689L1411.5 698L1415 707L1418.5 720L1421 731.5L1421.5 736.5L1452.5 718.5L1444 704.5L1435 690.5L1434.46 689.659C1430.16 682.897 1425.32 676.49 1420 670.5L1417.49 668.351C1416.83 667.786 1416.11 667.304 1415.33 666.915C1414.12 666.311 1413.04 665.481 1412.14 664.471L1409.5 661.5C1406.17 656.842 1403.26 651.903 1400.79 646.74L1399 643L1395.22 637.126C1394.75 636.394 1394.07 635.826 1393.26 635.503L1393.03 635.412C1392.36 635.144 1391.62 635.094 1390.92 635.269C1390.32 635.42 1389.77 635.732 1389.33 636.173L1387.87 637.626C1387.29 638.207 1386.78 638.852 1386.34 639.548Z" fill="#EAC165" stroke="#EAC165" stroke-width="0.5"/>
<path d="M1397 486.697V486.154C1397 484.058 1397.23 481.967 1397.68 479.921L1398 478.5L1398.91 475.465C1399.3 474.16 1399.85 472.905 1400.53 471.728C1402.15 468.964 1404.5 466.702 1407.32 465.197L1410.5 463.5L1418.5 460.5L1425 458.5L1433.5 457L1442 456.5L1445.35 456.723C1448.1 456.907 1450.83 457.442 1453.45 458.316L1454 458.502C1455.99 459.165 1457.9 460.055 1459.69 461.155L1460.32 461.544C1462.43 462.839 1464.31 464.469 1465.89 466.368C1467.62 468.439 1468.96 470.801 1469.86 473.343L1474 485L1480.5 508L1485 527.5L1488.5 546L1490 558L1492 571L1493.5 583.5L1494.5 598.5L1489.5 601L1487 591L1485 586L1487 602L1452 612L1448.5 606.5L1449.5 612L1434 615.5L1432.5 611L1430.5 602L1429 593L1428 586C1427.67 587.328 1427.5 588.692 1427.5 590.062V593.5L1428 599.5L1429.5 608.5L1431 615.5L1421.5 617.5C1420.17 612.841 1419.21 608.083 1418.63 603.272L1418 598V574L1419 564.5L1419.5 555L1421 542.5V541.72C1421 538.259 1420.49 534.816 1419.5 531.5C1417.5 526.841 1415.14 522.347 1412.43 518.061L1410.5 515L1403.28 504.164C1402.09 502.391 1401.05 500.53 1400.15 498.599L1399.18 496.533C1398.4 494.851 1397.82 493.08 1397.45 491.259C1397.15 489.757 1397 488.228 1397 486.697Z" fill="#D6652D" stroke="#D6652D" stroke-width="0.5"/>
<path d="M1327 982L1325 964H1352L1347 982H1327Z" fill="#E6B2B6" stroke="#E6B2B6" stroke-width="0.5"/>
<path d="M1292.14 998.703L1291.5 999.5L1343.5 999L1349.5 981.5C1346.17 980.835 1342.79 980.5 1339.4 980.5H1334.5L1332.33 980.594C1326.13 980.864 1319.98 981.839 1314 983.5L1310.05 985.164C1306.37 986.715 1302.9 988.742 1299.75 991.196C1296.93 993.391 1294.37 995.911 1292.14 998.703Z" fill="#D45C2A" stroke="#D45C2A" stroke-width="0.5"/>
<path d="M1321 966.5L1315 862L1338 844.5L1353.5 855.5L1375.5 879L1374.5 886.5L1373.5 896.5L1371 908.5L1363.5 935L1353.5 966.5H1321Z" fill="#343383" stroke="#343383" stroke-width="0.5"/>
<path d="M1215 983L1221 968L1251.5 969L1239 982L1215 983Z" fill="#E6B2B6" stroke="#E6B2B6" stroke-width="0.5"/>
<path d="M1187 995.5L1183.5 999.5L1235.5 1000L1241 981.5L1238 981L1229.87 980.375C1226.63 980.125 1223.37 980.163 1220.14 980.486C1216.72 980.828 1213.34 981.488 1210.05 982.457L1206.5 983.5L1201.79 985.161C1199.27 986.05 1196.88 987.25 1194.65 988.732C1192.89 989.908 1191.25 991.255 1189.75 992.754L1187 995.5Z" fill="#D45C2A" stroke="#D45C2A" stroke-width="0.5"/>
<path d="M1372 760.5L1394.5 753L1342 851.5L1332.43 855.416C1331.48 855.803 1330.59 856.324 1329.8 856.963C1328.94 857.65 1328.19 858.466 1327.58 859.381L1325.5 862.5L1315.5 881L1304.5 901.5L1296 917.5L1287 931.5L1278 945L1263.5 963L1256.5 971L1216 970.5L1229.5 931.5L1241.5 897.5L1252 869L1269 827L1276.54 810.248C1277.51 808.091 1278.75 806.066 1280.23 804.219C1281.41 802.743 1282.73 801.391 1284.18 800.181L1285.21 799.328C1287.07 797.779 1289.06 796.396 1291.16 795.196L1298.5 791L1316.5 782L1342.5 771.5L1372 760.5Z" fill="#555BA5" stroke="#555BA5" stroke-width="0.5"/>
<path d="M1316 814L1317.75 813.206C1320.24 812.071 1322.84 811.165 1325.5 810.5V809C1322.85 809.331 1320.26 810.062 1317.83 811.168L1316 812L1310.71 813.762C1310.24 813.92 1309.75 814.036 1309.25 814.106L1307.12 814.411C1306.72 814.469 1306.34 814.656 1306.05 814.946C1305.7 815.301 1305.5 815.782 1305.5 816.284V818.23C1305.5 819.069 1305.34 819.9 1305.03 820.679L1301.5 829.5L1295 845C1291.5 853 1284.5 869.1 1284.5 869.5C1284.5 869.9 1279.17 881.333 1276.5 887L1272 897.5L1262.5 917L1251.5 939L1241 958L1241.5 959L1249 945.5L1258 928.5L1269 906.5L1278 887.5L1283.5 875L1290.5 860L1297.5 843.5L1303.5 829.5L1306.61 821.497C1306.87 820.835 1307.04 820.144 1307.13 819.439L1307.45 816.863C1307.48 816.628 1307.59 816.409 1307.76 816.241C1307.92 816.084 1308.12 815.98 1308.34 815.944L1311 815.5L1316 814Z" fill="#343585" stroke="#343585" stroke-width="0.5"/>
<path d="M1349 785.5L1346.04 788.049C1338.36 794.675 1331.16 801.843 1324.5 809.5L1323.37 810.82C1322.13 812.264 1321.13 813.894 1320.4 815.65C1319.47 817.861 1319 820.233 1319 822.629V823.327C1319 824.771 1319.16 826.211 1319.47 827.621C1319.82 829.201 1320.37 830.732 1321.09 832.18L1321.3 832.597C1322.1 834.194 1323.07 835.695 1324.21 837.071L1332 846.5L1342.5 857L1352.5 865.5L1366.5 875.5L1376.5 881L1388.5 886.5L1401.5 891.5L1415.5 895L1430 897.5L1444 898.5H1458L1470 898L1482 896.5L1493.5 895L1505.5 892.5L1515.5 890L1523.5 887.5L1534.5 883.5L1544.5 879L1551 875.5L1558.5 870.5L1566.5 864.5L1573 859L1579 853L1585.5 845.5L1591 838L1596.5 828.5L1602 818L1606 808L1610 793.5L1613 778L1614 767L1614.5 758V739.5L1613.5 730.5L1612.5 723L1611.5 716L1609.5 706.5L1608 699.5L1607.1 696.58C1606.37 694.197 1605.44 691.879 1604.32 689.65L1604.15 689.293C1603.05 687.102 1601.76 685.014 1600.29 683.055L1599.02 681.359C1597.35 679.133 1595.35 677.177 1593.08 675.559L1592.37 675.052C1590.47 673.693 1588.36 672.649 1586.13 671.962C1584.05 671.324 1581.9 671 1579.73 671H1576.28C1573.43 671 1570.59 671.273 1567.79 671.814L1556.5 674L1534 680.5L1507.5 690.5L1484 701L1459.5 713.5L1434 727.5L1413 740L1388 756L1369.5 769L1349 785.5Z" fill="#D6652D" stroke="#D6652D" stroke-width="0.5"/>
<rect x="1357" y="983" width="200" height="16" rx="8" fill="#D2872C"/>
<rect x="1444" y="896" width="23" height="89" fill="#D2872C"/>
<path d="M1507.5 702.5L1504 692L1528 682.5L1545 677L1559 673.5L1567.87 671.652C1569.95 671.218 1572.07 670.933 1574.19 670.801L1576.32 670.667C1578.1 670.556 1579.89 670.637 1581.65 670.908C1584.2 671.3 1586.68 672.088 1588.98 673.242L1589.42 673.46C1591.47 674.483 1593.38 675.752 1595.11 677.24L1595.7 677.74C1598.22 679.902 1600.41 682.419 1602.21 685.213L1602.37 685.46C1603.45 687.15 1604.4 688.928 1605.19 690.776L1605.53 691.57C1606.51 693.853 1607.3 696.21 1607.9 698.62L1610 707L1612.5 720.5L1614.5 735.5L1615 761.5L1613 779L1610 794L1607.5 803.5L1603.5 814L1599 824.5L1593.5 834C1589.51 840.323 1585.01 846.314 1580.06 851.916L1576 856.5L1565 866L1555.5 872.5L1543.5 879.5L1530.5 885L1517.5 889.5L1503 893L1490 895.5L1475.5 897L1465.5 898L1448 898.5L1438 898L1424 896.5L1410.5 893.5L1405.5 892L1414.5 890L1429 885.5L1441 880L1450 875L1461 868L1464.33 865.308C1469.1 861.442 1473.58 857.217 1477.71 852.67C1483.55 846.242 1488.69 839.203 1493.02 831.675L1496 826.5L1502.5 813L1508 797L1510.5 785L1512.5 771.5L1513.5 757L1513 739L1512.5 730L1511 721L1509.5 711.5L1507.5 702.5Z" fill="#C5582D" stroke="#C5582D" stroke-width="0.5"/>
<rect x="38" y="998" width="1711" height="9" rx="4.5" fill="#D2872C"/>
</svg>
